<svg xmlns="http://www.w3.org/2000/svg" xmlns:xlink="http://www.w3.org/1999/xlink" viewBox="0 0 206.1 294.7">
  <defs>
    <linearGradient id="linear-gradient" x1="409.01" y1="-5.31" x2="557.94" y2="-206.2" gradientTransform="translate(-373.3 474.4) rotate(-15)" gradientUnits="userSpaceOnUse">
      <stop offset="0" stop-color="#b3fff0"/>
      <stop offset="1" stop-color="#a4ebca"/>
    </linearGradient>
    <linearGradient id="linear-gradient-2" x1="515.59" y1="-74.17" x2="619.67" y2="-292.36" xlink:href="#linear-gradient"/>
    <radialGradient id="radial-gradient" cx="93.52" cy="-306.15" r="123.08" gradientTransform="translate(0 290.3) scale(1 0.9)" gradientUnits="userSpaceOnUse">
      <stop offset="0" stop-color="#27a56c"/>
      <stop offset="1" stop-color="#27a56c" stop-opacity="0"/>
    </radialGradient>
    <radialGradient id="radial-gradient-2" cx="89.74" cy="-307.84" r="161.45" xlink:href="#radial-gradient"/>
    <radialGradient id="radial-gradient-3" cx="81.35" cy="-265.83" r="151.8" xlink:href="#radial-gradient"/>
    <radialGradient id="radial-gradient-4" cx="84.71" cy="-295.41" r="211.2" xlink:href="#radial-gradient"/>
    <radialGradient id="radial-gradient-5" cx="91.07" cy="-282.75" r="235.72" xlink:href="#radial-gradient"/>
    <radialGradient id="radial-gradient-6" cx="135.4" cy="-183.06" r="166.86" xlink:href="#radial-gradient"/>
    <radialGradient id="radial-gradient-7" cx="5137.98" cy="-1626.25" r="107.58" gradientTransform="matrix(-0.87, 0.45, 0.5, 0.78, 5304.59, -976.3)" xlink:href="#radial-gradient"/>
    <radialGradient id="radial-gradient-8" cx="5135.98" cy="-1625.37" r="142.48" gradientTransform="matrix(-0.87, 0.45, 0.5, 0.78, 5304.59, -976.3)" xlink:href="#radial-gradient"/>
    <radialGradient id="radial-gradient-9" cx="5127.41" cy="-1591.54" r="139.7" gradientTransform="matrix(-0.87, 0.45, 0.5, 0.78, 5304.59, -976.3)" xlink:href="#radial-gradient"/>
    <radialGradient id="radial-gradient-10" cx="5130.5" cy="-1634.27" r="209.41" gradientTransform="matrix(-0.87, 0.45, 0.5, 0.78, 5304.59, -976.3)" xlink:href="#radial-gradient"/>
    <radialGradient id="radial-gradient-11" cx="5134.66" cy="-1641.11" r="249.17" gradientTransform="matrix(-0.87, 0.45, 0.5, 0.78, 5304.59, -976.3)" xlink:href="#radial-gradient"/>
    <radialGradient id="radial-gradient-12" cx="5172.63" cy="-1574.84" r="220.05" gradientTransform="matrix(-0.87, 0.45, 0.5, 0.78, 5304.59, -976.3)" xlink:href="#radial-gradient"/>
    <radialGradient id="radial-gradient-13" cx="75.47" cy="-307.7" r="237.81" gradientTransform="translate(0 290.3) scale(1 0.9)" gradientUnits="userSpaceOnUse">
      <stop offset="0" stop-color="#27a56c"/>
      <stop offset="0.26" stop-color="#27a56c" stop-opacity="0.98"/>
      <stop offset="0.42" stop-color="#27a56c" stop-opacity="0.93"/>
      <stop offset="0.55" stop-color="#27a56c" stop-opacity="0.85"/>
      <stop offset="0.66" stop-color="#27a56c" stop-opacity="0.72"/>
      <stop offset="0.76" stop-color="#27a56c" stop-opacity="0.56"/>
      <stop offset="0.86" stop-color="#27a56c" stop-opacity="0.37"/>
      <stop offset="0.95" stop-color="#27a56c" stop-opacity="0.14"/>
      <stop offset="0.97" stop-color="#27a56c" stop-opacity="0.09"/>
      <stop offset="1" stop-color="#27a56c" stop-opacity="0"/>
    </radialGradient>
  </defs>
  <title>autumn-elm-logo</title>
  <g style="isolation: isolate">
    <g id="Layer_2" data-name="Layer 2">
      <g id="Layer_1-2" data-name="Layer 1">
        <g>
          <path d="M200.9,179.6l-.2-1.8a164.6,164.6,0,0,0-.9-33.9l-4.5.2a202.2,202.2,0,0,0-7.4-29.3l-4.4.9a256.5,256.5,0,0,0-13.1-29.6l-5.8,2.2a317.7,317.7,0,0,0-18.8-29.4l-5.2,3.1a382.6,382.6,0,0,0-26.1-30.7l-4,3.3C88.6,13.5,71.2,0,71.2,0S56,17,40.4,45.4l-4.5-2A237.4,237.4,0,0,0,20.5,84.7l-6-1.2a226.2,226.2,0,0,0-6,39.3l-6.3.2a211.7,211.7,0,0,0,2.1,38.2L0,162.5a188.7,188.7,0,0,0,9.6,35.1l-4,2.4A161.3,161.3,0,0,0,26,235l1.2,2c-2.2,2.5-3.4,4.1-3.4,4.1s15.4,17.8,36.5,27.4c22.9,11.8,51.1,12.7,77.4,2s47.1-31.9,56.9-54a132.9,132.9,0,0,0,11.4-36Z" fill="url(#linear-gradient)"/>
          <g opacity="0.5" style="mix-blend-mode: multiply">
            <path d="M200.9,177.7a164.5,164.5,0,0,0-.9-33.9l-4.5.2a202,202,0,0,0-7.4-29.3l-4.4.9A256.1,256.1,0,0,0,170.6,86l-5.8,2.2A317.6,317.6,0,0,0,146,58.8l-5.2,3.1a382.9,382.9,0,0,0-26.1-30.7l-4,3.3C88.8,13.5,71.4-.1,71.4,0a916.9,916.9,0,0,0,66.4,270.4c27.3-11.3,47.1-31.9,56.9-54a132.9,132.9,0,0,0,11.4-36l-5-.9Z" fill="url(#linear-gradient-2)"/>
          </g>
          <path d="M29.2,240.8a148.3,148.3,0,0,0,24.1,4.7,175.1,175.1,0,0,0,24.3,1.1,166.5,166.5,0,0,0,24.1-2.3,131.4,131.4,0,0,0,23.4-6.2.9.9,0,0,1,1.1.6,1,1,0,0,1-.5,1.2h0a132.6,132.6,0,0,1-23.7,6,167.1,167.1,0,0,1-24.3,2.1,175.6,175.6,0,0,1-24.4-1.3,149.1,149.1,0,0,1-24.2-5,.6.6,0,0,1-.3-.7A.4.4,0,0,1,29.2,240.8Z" fill="#b3fff0"/>
          <g>
            <path d="M91.5,128a135.5,135.5,0,0,1-68.5-34h0A161.6,161.6,0,0,1,37.5,48.7c9.2,17.8,26.8,36,46,45.1Q87.2,111.1,91.5,128Z" opacity="0.5" fill="url(#radial-gradient)"/>
            <path d="M99.6,159c-31,.2-61.6-8.4-87.7-27.1a155.2,155.2,0,0,1,5.3-43.6C37.2,109,62.6,123,91.5,128Q95.3,143.6,99.6,159Z" opacity="0.6" fill="url(#radial-gradient-2)" style="mix-blend-mode: multiply"/>
            <path d="M107.8,187.4c-33.5,4.5-67.8-.7-98.1-17.9a151.2,151.2,0,0,1-4.6-43.4c21.7,20.5,59.2,33,94.5,32.8Q103.5,173.3,107.8,187.4Z" opacity="0.7" fill="url(#radial-gradient-3)" style="mix-blend-mode: multiply"/>
            <path d="M115.7,212.2c-32.9,6.5-67.1,5-99.1-6.9A134.5,134.5,0,0,1,4.1,165.8c25.9,19,71,26.8,103.7,21.6Q111.6,199.9,115.7,212.2Z" opacity="0.8" fill="url(#radial-gradient-4)" style="mix-blend-mode: multiply"/>
            <path d="M125.3,239.1c-26.8,8.7-55.4,11.2-83.2,5.4A124.8,124.8,0,0,1,9.8,202.1c28.3,14.8,74.7,17.3,105.9,10.1Q120.3,225.7,125.3,239.1Z" opacity="0.9" fill="url(#radial-gradient-5)" style="mix-blend-mode: multiply"/>
            <path d="M125.3,239.1c-31,10.3-64.5,12.1-96.2,2.2,29,30.5,70.4,39.7,108.5,29.2Q131.2,255,125.3,239.1Z" fill="url(#radial-gradient-6)" style="mix-blend-mode: multiply"/>
          </g>
          <g>
            <path d="M93.8,132.3a187.2,187.2,0,0,0,49.4-57.3h0a199.9,199.9,0,0,0-27-33.9c-4.2,18.5-14.8,40.7-29,56.9Q90.2,115.2,93.8,132.3Z" opacity="0.5" fill="url(#radial-gradient-7)"/>
            <path d="M101.4,163.4a203.5,203.5,0,0,0,65.5-62.3,172.6,172.6,0,0,0-20.1-32.8c-12.2,23.9-29.4,46.1-52.9,64Q97.3,147.9,101.4,163.4Z" opacity="0.6" fill="url(#radial-gradient-8)" style="mix-blend-mode: multiply"/>
            <path d="M109.6,191.7a211.3,211.3,0,0,0,74.7-63.4A152.6,152.6,0,0,0,170.8,94c-12.2,23.9-39.1,50.9-69.4,69.4Q105.3,177.7,109.6,191.7Z" opacity="0.7" fill="url(#radial-gradient-9)" style="mix-blend-mode: multiply"/>
            <path d="M117.6,216.4A252.4,252.4,0,0,0,195,156.9a126.2,126.2,0,0,0-7.4-33.7c-14.8,24.6-48.1,53.9-78,68.5Q113.4,204.2,117.6,216.4Z" opacity="0.8" fill="url(#radial-gradient-10)" style="mix-blend-mode: multiply"/>
            <path d="M127.1,243.3a206.4,206.4,0,0,0,67.9-46.5,124.1,124.1,0,0,0,4.1-45.4c-16.9,23.4-52.6,51.5-81.6,65Q122.1,230,127.1,243.3Z" opacity="0.9" fill="url(#radial-gradient-11)" style="mix-blend-mode: multiply"/>
            <path d="M127.1,243.3a202,202,0,0,0,76.5-55.7c-6.4,35.2-29.6,67.4-64,87Q133.1,259.1,127.1,243.3Z" fill="url(#radial-gradient-12)" style="mix-blend-mode: multiply"/>
          </g>
          <path d="M137.6,270.5c66.3-73.4,40.3-160.7-65.5-260A916,916,0,0,0,137.6,270.5Z" opacity="0.1" fill="url(#radial-gradient-13)" style="mix-blend-mode: multiply"/>
          <g>
            <g opacity="0.03" style="mix-blend-mode: multiply">
              <path d="M114.5,42.6a112.6,112.6,0,0,1-4.8,15.9A151.8,151.8,0,0,1,103,73.6a142.7,142.7,0,0,1-17.9,27.3.8.8,0,0,1-1.2,0,1.1,1.1,0,0,1,0-1.4h0a139.7,139.7,0,0,0,18-26.6,149.6,149.6,0,0,0,6.8-14.8,111.2,111.2,0,0,0,5-15.6.5.5,0,0,1,.5-.4A.5.5,0,0,1,114.5,42.6Z"/>
              <path d="M145.2,69.9a194.7,194.7,0,0,1-22.7,35.6,182.1,182.1,0,0,1-29.8,29.4.8.8,0,0,1-1.2-.3,1.1,1.1,0,0,1,.2-1.4h0a179,179,0,0,0,29.8-28.7,192.5,192.5,0,0,0,22.9-35.1.4.4,0,0,1,.6-.2A.5.5,0,0,1,145.2,69.9Z"/>
              <path d="M169.4,95.5a127.3,127.3,0,0,1-13.5,21,196,196,0,0,1-16.6,18.6,224.2,224.2,0,0,1-38.9,30.9.8.8,0,0,1-1.2-.4,1.1,1.1,0,0,1,.3-1.4h0a220.8,220.8,0,0,0,38.8-30.2,193.6,193.6,0,0,0,16.7-18.3,125.8,125.8,0,0,0,13.6-20.7h0a.4.4,0,0,1,.6-.2A.5.5,0,0,1,169.4,95.5Z"/>
              <path d="M186.3,124.8a133.5,133.5,0,0,1-15.7,21.1,225.2,225.2,0,0,1-18.7,18.6,242.6,242.6,0,0,1-20.7,16.4,170.3,170.3,0,0,1-22.5,13.6.9.9,0,0,1-1.2-.5,1,1,0,0,1,.4-1.3h0a167.4,167.4,0,0,0,22.4-13.2,239,239,0,0,0,20.7-16.1,222.9,222.9,0,0,0,18.8-18.3,132.2,132.2,0,0,0,15.7-20.8h0a.4.4,0,0,1,.6-.2A.5.5,0,0,1,186.3,124.8Z"/>
              <path d="M198.1,153a149.1,149.1,0,0,1-17.2,19.9,262.9,262.9,0,0,1-19.8,17.6c-6.9,5.5-14,10.8-21.4,15.6a189.8,189.8,0,0,1-23,13.1.9.9,0,0,1-1.2-.5,1,1,0,0,1,.5-1.3h0A186.8,186.8,0,0,0,139,204.6c7.4-4.7,14.5-9.9,21.4-15.3A259.8,259.8,0,0,0,180.2,172a147.6,147.6,0,0,0,17.2-19.6h0a.4.4,0,0,1,.6-.1A.4.4,0,0,1,198.1,153Z"/>
              <path d="M202.8,189.2a209.4,209.4,0,0,1-16.6,17.2q-8.8,8.2-18.3,15.5A210,210,0,0,1,148,235.4,142.2,142.2,0,0,1,126.5,246a.9.9,0,0,1-1.1-.6,1,1,0,0,1,.5-1.2h0A139.7,139.7,0,0,0,147.2,234a207,207,0,0,0,19.8-13.2q9.6-7.1,18.4-15.2a207.7,207.7,0,0,0,16.6-16.9.4.4,0,0,1,.6,0A.4.4,0,0,1,202.8,189.2Z"/>
              <path d="M36.8,50.5A99.2,99.2,0,0,0,46,64.6,111.8,111.8,0,0,0,57,76.8a98.7,98.7,0,0,0,25.8,18,1.1,1.1,0,0,1,.5,1.3.9.9,0,0,1-1.2.6h0A100.3,100.3,0,0,1,56.2,78a113.5,113.5,0,0,1-11-12.5A100.7,100.7,0,0,1,36,51.1a.6.6,0,0,1,.1-.7A.4.4,0,0,1,36.8,50.5Z"/>
              <path d="M16.4,90a138.9,138.9,0,0,0,34.8,25.8A132.7,132.7,0,0,0,90.7,129a1,1,0,0,1,.7,1.1.9.9,0,0,1-1,.9h0a133.8,133.8,0,0,1-39.7-13.7A140.2,140.2,0,0,1,15.9,90.9a.6.6,0,0,1,0-.8A.4.4,0,0,1,16.4,90Z"/>
              <path d="M4.4,127.9a103.8,103.8,0,0,0,21.6,15,138.9,138.9,0,0,0,23.5,9.7A163.3,163.3,0,0,0,98.7,160a1,1,0,0,1,0,2h0a164.1,164.1,0,0,1-49.6-7.8,139.9,139.9,0,0,1-23.6-10A105,105,0,0,1,3.9,128.8a.6.6,0,0,1-.1-.8.4.4,0,0,1,.6-.1Z"/>
              <path d="M3.5,167.5A106.8,106.8,0,0,0,28,180.2a155.4,155.4,0,0,0,26,7.1,170.9,170.9,0,0,0,26.5,2.8,144.6,144.6,0,0,0,26.4-1.6.9.9,0,0,1,1,.8,1,1,0,0,1-.7,1.1h0a145.7,145.7,0,0,1-26.7,1.4,171.6,171.6,0,0,1-26.6-3,156.2,156.2,0,0,1-26.1-7.3A107.8,107.8,0,0,1,3,168.5a.6.6,0,0,1-.2-.8.4.4,0,0,1,.6-.2Z"/>
              <path d="M9.2,203.8a114.6,114.6,0,0,0,25.8,9,176.4,176.4,0,0,0,26.6,3.9,197.1,197.1,0,0,0,26.7.2,162.8,162.8,0,0,0,26.4-3.7h0a.9.9,0,0,1,1.1.8,1,1,0,0,1-.7,1.2h0a163.8,163.8,0,0,1-26.7,3.5,197.6,197.6,0,0,1-26.9-.4,177,177,0,0,1-26.7-4.2,115.5,115.5,0,0,1-26-9.3.6.6,0,0,1-.2-.7.4.4,0,0,1,.6-.3Z"/>
              <path d="M28.5,243a148.3,148.3,0,0,0,24.1,4.7,174.9,174.9,0,0,0,24.3,1,166.3,166.3,0,0,0,24.1-2.4,131.3,131.3,0,0,0,23.4-6.2.9.9,0,0,1,1.1.6,1,1,0,0,1-.5,1.2h0a132.5,132.5,0,0,1-23.7,6.1,166.9,166.9,0,0,1-24.3,2.2A175.5,175.5,0,0,1,52.5,249a149,149,0,0,1-24.2-5,.6.6,0,0,1-.3-.7A.4.4,0,0,1,28.5,243Z"/>
            </g>
            <g>
              <g>
                <path d="M115.6,40.8a112.5,112.5,0,0,1-4.8,15.9,151.9,151.9,0,0,1-6.7,15.1,142.5,142.5,0,0,1-18,27.2.8.8,0,0,1-1.2,0,1.1,1.1,0,0,1,0-1.4h0A139.6,139.6,0,0,0,102.9,71a149.4,149.4,0,0,0,6.9-14.8,110.9,110.9,0,0,0,5-15.6.5.5,0,0,1,.5-.4A.5.5,0,0,1,115.6,40.8Z" fill="#b3fff0"/>
                <path d="M146.3,68.1a194.5,194.5,0,0,1-22.7,35.5A182.1,182.1,0,0,1,93.7,133a.8.8,0,0,1-1.2-.3,1.1,1.1,0,0,1,.2-1.4h0a178.9,178.9,0,0,0,29.8-28.6,192.4,192.4,0,0,0,22.9-35,.4.4,0,0,1,.6-.2A.5.5,0,0,1,146.3,68.1Z" fill="#b3fff0"/>
                <path d="M170.4,93.8a127.2,127.2,0,0,1-13.5,21,195.8,195.8,0,0,1-16.7,18.6,224.1,224.1,0,0,1-39,30.8.8.8,0,0,1-1.2-.4,1.1,1.1,0,0,1,.3-1.4h0a220.7,220.7,0,0,0,38.9-30.1A193.5,193.5,0,0,0,156,114a125.7,125.7,0,0,0,13.6-20.6h0a.4.4,0,0,1,.6-.2A.5.5,0,0,1,170.4,93.8Z" fill="#b3fff0"/>
                <path d="M187.3,123a133.4,133.4,0,0,1-15.7,21,225.4,225.4,0,0,1-18.8,18.5,242.4,242.4,0,0,1-20.7,16.4,170.4,170.4,0,0,1-22.6,13.5.9.9,0,0,1-1.2-.5,1,1,0,0,1,.4-1.3h0a167.4,167.4,0,0,0,22.4-13.2,239.1,239.1,0,0,0,20.7-16,223,223,0,0,0,18.8-18.2,132,132,0,0,0,15.8-20.7h0a.4.4,0,0,1,.6-.1A.5.5,0,0,1,187.3,123Z" fill="#b3fff0"/>
                <path d="M199,151.2A149,149,0,0,1,181.8,171,262.8,262.8,0,0,1,162,188.5c-6.9,5.5-14,10.8-21.4,15.6a189.8,189.8,0,0,1-23,13.1.9.9,0,0,1-1.2-.5,1,1,0,0,1,.5-1.3h0a186.9,186.9,0,0,0,22.9-12.7c7.4-4.7,14.5-9.9,21.4-15.3A259.7,259.7,0,0,0,181,170.2a147.5,147.5,0,0,0,17.3-19.5h0a.4.4,0,0,1,.6-.1A.4.4,0,0,1,199,151.2Z" fill="#b3fff0"/>
                <path d="M203.6,187.4A209.6,209.6,0,0,1,187,204.5q-8.8,8.1-18.4,15.4a210.2,210.2,0,0,1-19.9,13.5A142.3,142.3,0,0,1,127.2,244a.9.9,0,0,1-1.1-.6,1,1,0,0,1,.5-1.2h0A139.8,139.8,0,0,0,148,232a207.1,207.1,0,0,0,19.9-13.1q9.6-7.1,18.4-15.1a207.6,207.6,0,0,0,16.7-16.9.4.4,0,0,1,.6,0A.4.4,0,0,1,203.6,187.4Z" fill="#b3fff0"/>
              </g>
              <g>
                <path d="M37.9,48.4a99,99,0,0,0,9.2,14.2,111.7,111.7,0,0,0,11,12.2A98.8,98.8,0,0,0,83.8,92.9a1.1,1.1,0,0,1,.5,1.3.9.9,0,0,1-1.2.6h0A100.4,100.4,0,0,1,57.2,76a113.5,113.5,0,0,1-11-12.5A100.7,100.7,0,0,1,37.1,49a.6.6,0,0,1,.1-.7A.4.4,0,0,1,37.9,48.4Z" fill="#b3fff0"/>
                <path d="M17.4,87.9a138.9,138.9,0,0,0,34.8,25.9A132.8,132.8,0,0,0,91.6,127a1,1,0,0,1,.7,1.1.9.9,0,0,1-1,.9h0a133.9,133.9,0,0,1-39.7-13.7A140.2,140.2,0,0,1,16.9,88.8a.6.6,0,0,1,0-.8A.4.4,0,0,1,17.4,87.9Z" fill="#b3fff0"/>
                <path d="M5.4,125.7a103.8,103.8,0,0,0,21.5,15,138.9,138.9,0,0,0,23.5,9.8A163.4,163.4,0,0,0,99.6,158a1,1,0,0,1,0,2h0A164.2,164.2,0,0,1,50,152,140,140,0,0,1,26.5,142,105,105,0,0,1,4.8,126.6a.6.6,0,0,1-.1-.8.4.4,0,0,1,.6-.1Z" fill="#b3fff0"/>
                <path d="M4.3,165.3A106.9,106.9,0,0,0,28.8,178a155.5,155.5,0,0,0,25.9,7.1A171,171,0,0,0,81.2,188a144.8,144.8,0,0,0,26.4-1.6.9.9,0,0,1,1,.8,1,1,0,0,1-.7,1.1h0a145.8,145.8,0,0,1-26.7,1.4,171.8,171.8,0,0,1-26.6-3.1,156.3,156.3,0,0,1-26.1-7.4,107.9,107.9,0,0,1-24.6-13,.6.6,0,0,1-.2-.8.4.4,0,0,1,.6-.2Z" fill="#b3fff0"/>
                <path d="M10,201.6a114.7,114.7,0,0,0,25.8,9.1,176.5,176.5,0,0,0,26.6,4,197.3,197.3,0,0,0,26.7.2,163,163,0,0,0,26.4-3.6h0a.9.9,0,0,1,1.1.8,1,1,0,0,1-.7,1.2h0a163.9,163.9,0,0,1-26.7,3.5,197.8,197.8,0,0,1-26.9-.4,177.1,177.1,0,0,1-26.7-4.2,115.6,115.6,0,0,1-25.9-9.4.6.6,0,0,1-.2-.7.4.4,0,0,1,.6-.3Z" fill="#b3fff0"/>
                <path d="M29.2,240.8a148.3,148.3,0,0,0,24.1,4.7,175.1,175.1,0,0,0,24.3,1.1,166.5,166.5,0,0,0,24.1-2.3,131.4,131.4,0,0,0,23.4-6.2.9.9,0,0,1,1.1.6,1,1,0,0,1-.5,1.2h0a132.6,132.6,0,0,1-23.7,6,167.1,167.1,0,0,1-24.3,2.1,175.6,175.6,0,0,1-24.4-1.3,149.1,149.1,0,0,1-24.2-5,.6.6,0,0,1-.3-.7A.4.4,0,0,1,29.2,240.8Z" fill="#b3fff0"/>
              </g>
            </g>
          </g>
          <path d="M141.9,291.5c-7.3-22.5-15.9-44.4-23.6-66.9q-5.8-16.9-10.9-34.1t-9.7-34.7q-9.2-35-15.7-71.4c-2.1-12.1-4.2-24.3-6-36.6s-3.3-24.7-4.7-37.1A1.1,1.1,0,0,1,72,9.4a.9.9,0,0,1,1,.8h0c1.2,12.5,2.6,24.9,4.4,37.2S81,71.9,83.3,84q6.7,36.2,16.2,71.2,4.8,17.4,10.2,34.5t11.5,33.7c8.1,22.2,16.8,44.1,28.5,64.1a4.9,4.9,0,0,1-1.3,6.5,4.2,4.2,0,0,1-6-1.6Z" fill="#b3fff0"/>
        </g>
      </g>
    </g>
  </g>
</svg>
