<?xml version="1.0" encoding="utf-8"?>
<!-- Generator: Adobe Illustrator 21.1.0, SVG Export Plug-In . SVG Version: 6.00 Build 0)  -->
<svg version="1.1" id="Layer_1" xmlns="http://www.w3.org/2000/svg" xmlns:xlink="http://www.w3.org/1999/xlink" x="0px" y="0px"
	 viewBox="0 0 166.5 83" style="enable-background:new 0 0 166.5 83;" xml:space="preserve">
<style type="text/css">
	.st0{fill:#1AAF46;}
	.st1{fill:#666666;}
</style>
<title>ihs-markit-logo</title>
<g id="Layer_2">
	<g id="content">
		<g>
			<g>
				<path class="st0" d="M7.2,58.8l17.3-27.5c0-0.3,0.1-0.7,0.2-1l0,0L5.9,57.4L7.2,58.8"/>
				<path class="st0" d="M2.5,52.4l0.9,1.7L25,29.4l0.7-1.2L2.5,52.4z"/>
				<path class="st0" d="M43.2,31.5L42.5,30l-4.4,4.6l-0.3,0.9L43.2,31.5z"/>
				<path class="st0" d="M35.5,38.3l9.8,4.6c0-0.6,0-1.5,0-1.5l-9.5-3.3L35.5,38.3"/>
				<path class="st0" d="M44.5,35.4l-7.4,1.1l-0.3,0.4h8.1l-0.3-1.5"/>
				<path class="st0" d="M40.2,26.4L39,25l-0.5,5.1l-2.7-8L34,20.9l2.2,5.2l-5.7-6.9l-2.3-0.8l5.7,6.3l-9.4-6.9h-2.4l9.9,6.5
					l-13.4-6.2l-2.2,0.5l14.2,5.8l-17.8-4.3l-1.9,1.1l18.5,3.4l-21.7-1l-1.6,1.6L28.5,25L3.8,28.3l-1.1,1.9l25-4.7L1.1,34.2
					c-0.2,0.6-0.4,1.2-0.5,1.9l26.2-9.8L0,40.2c0,0.6,0,1.4,0,2l26-15L0.5,46.4c0.1,0.6,0.3,1.2,0.4,1.8L26,27.7
					c1.3-1.7,3.3-2.7,5.4-2.7c3.9,0.1,7.1,3.4,7,7.3c0,0.4,0,0.8-0.1,1.2L40.2,26.4z"/>
				<path class="st0" d="M24.5,33.2c0-0.3,0-0.5,0-0.8l-14,29l1.5,0.9L24.5,33.2z"/>
				<path class="st0" d="M32.4,39.6H32l9.6,14.8l0.9-1.5L32.4,39.6z"/>
				<path class="st0" d="M34.2,39.1h-0.3l10.3,9.7l0.4-1.6L34.2,39.1z"/>
				<path class="st0" d="M39.2,57.7l-8.6-18h-0.4L38,58.9L39.2,57.7"/>
				<path class="st0" d="M23.4,65.2l2.5-28.4l-0.3-0.5l-4,28.9H23.4"/>
				<path class="st0" d="M28.8,39.1l-0.4-0.2l4.7,23.6l1.5-0.9L28.8,39.1z"/>
				<path class="st0" d="M24.9,35.1l-0.2-0.7l-8.9,29.7l1.7,0.5L24.9,35.1z"/>
				<path class="st0" d="M27.2,38.2l-0.4-0.3l0.7,26.8l1.8-0.5L27.2,38.2z"/>
			</g>
			<polygon class="st1" points="53.8,32.5 55.4,32.5 55.4,50.4 54.6,50.4 53.8,50.4 			"/>
			<polygon class="st1" points="59.9,32.5 61.5,32.5 61.5,40.2 70.7,40.2 70.7,32.5 72.3,32.5 72.3,50.4 70.7,50.4 70.7,41.7 
				61.5,41.7 61.5,50.4 59.9,50.4 			"/>
			<path class="st1" d="M75.5,46l1.4-0.6c0.5,2.3,2.6,3.9,4.9,3.8c2.5,0,4.2-1.2,4.2-3.2s-0.8-2.8-4.5-4S76,39.7,76,36.8
				c0-2.9,2.2-4.6,5.3-4.6c2.7-0.2,5.1,1.5,5.8,4.1L85.7,37c-0.6-2-2.4-3.3-4.5-3.2c-2.3,0-3.6,1.3-3.6,2.9c0,1.6,1.1,2.7,4.7,3.9
				c3.6,1.2,5.3,2.4,5.3,5.3s-2.5,4.8-5.9,4.8C78.8,50.8,76.2,48.8,75.5,46"/>
			<path class="st1" d="M96.5,32.5h2.1l5.7,15.6l0,0l5.7-15.6h2.2v17.9h-1.6v-15l0,0c-0.2,0.8-0.6,2-1.1,3.1L105,50.4h-1.5
				l-4.4-11.8c-0.4-1.2-0.7-1.9-1.1-3.2l0,0v15h-1.5V32.5z"/>
			<path class="st1" d="M115.5,47.4c0-2.5,2-4.3,8.2-5.3v-0.6c0-1.8-0.9-2.6-2.5-2.6c-1.7,0-3.3,0.8-4.5,2l-0.8-1
				c1.4-1.5,3.4-2.4,5.5-2.4c2.7,0,3.9,1.5,3.9,4v5.8c-0.1,1,0,2.1,0.3,3.1H124c-0.2-0.6-0.3-1.2-0.3-1.8c-1.3,1.3-3,2-4.8,2
				C116.7,50.6,115.5,49.4,115.5,47.4 M123.7,47.2v-3.9c-5.2,0.9-6.6,2.3-6.6,3.9c-0.1,1,0.7,2,1.8,2c0.1,0,0.3,0,0.4,0
				C121,49.2,122.6,48.4,123.7,47.2"/>
			<path class="st1" d="M129,37.7h1.6v2.5l0,0c1-1.7,2.8-2.8,4.8-2.7h0.3l-0.2,1.5H135c-2,0-3.8,1.3-4.5,3.2v8.3H129V37.7z"/>
			<polygon class="st1" points="138,32.5 139.6,32.5 139.6,44.4 145.3,37.7 147.2,37.7 143.2,42.2 147.7,50.4 145.9,50.4 
				142.2,43.4 139.6,46.4 139.6,50.4 138,50.4 			"/>
			<path class="st1" d="M150.2,33h1.7v1.7h-1.7V33z M150.2,37.7h1.6v12.7h-1.6V37.7z"/>
			<path class="st1" d="M156.6,47.4v-8.3h-2.1v-1.4h2.1v-4.6h1.6v4.6h3.1v1.4h-3.1v8c0,1.3,0.4,2.1,1.9,2.1l1.3-0.2v1.4h-1.6
				c-2.3,0-3.2-0.9-3.2-3.1"/>
			<polygon class="st1" points="163.2,37.9 162.5,37.9 162.5,37.7 164.1,37.7 164.1,37.9 163.4,37.9 163.4,40 163.2,40 			"/>
			<path class="st1" d="M164.5,37.7h0.3l0.7,2l0,0l0.7-2h0.3V40h-0.2v-2l0,0v0.4l-0.6,1.5h-0.2l-0.6-1.5V38l0,0v1.9h-0.2L164.5,37.7
				z"/>
		</g>
	</g>
</g>
</svg>
