<svg xmlns="http://www.w3.org/2000/svg" viewBox="0 0 139.1 196">
  <title>path21</title>
  <g id="Layer_2" data-name="Layer 2">
    <g id="Layer_1-2" data-name="Layer 1">
      <path d="M137.1,136.8h-5.7v-94a6.3,6.3,0,0,0-5.7-6.5,6.5,6.5,0,0,0-6.2,6.7v93.8h-3.5v-66c0-2.3-1.2-5.2-3.7-5.2s-2.5.3-4,1.2l-9.7,6a2.2,2.2,0,0,1-3-.5,2.1,2.1,0,0,1,1.2-2.8l16.4-9.9c2-1.3,3.3-3,3.3-5.5a6,6,0,0,0-5.8-5.7,5.5,5.5,0,0,0-3.2,1l-9,5.3a2.2,2.2,0,0,1-2.8-.3,2,2,0,0,1,.7-2.8L113,41.7a6.8,6.8,0,0,0,3.5-6.1V0h-4V36.3a2.2,2.2,0,0,1-1.1,2L95.2,47.7c-2.2,1.5-4,3.3-3.8,6A5.6,5.6,0,0,0,97,59.2a5.5,5.5,0,0,0,3.8-1.2l7.7-4.7c1.2-.7,2.7-1.3,3.3-.2s.2,2.3-.8,3l-15,9c-2.7,1.7-4.8,3.5-4.8,6.5s5.2,6.8,8.5,5l10-5.8a1.6,1.6,0,0,1,1.5-.3c.3.3.8.7.8,1.3v65H53.8c-.7,0-1.5,0-1.8-.7s.2-1,.5-1.5l20.9-29.4c6.7-9,9.9-15.9,9.9-27.1C83,55.3,64.3,36.5,41.4,36.5S0,55.8,0,78.5A42.5,42.5,0,0,0,20.9,115c4.7,3,9.9.3,9.5-5.2,0-2.8-2.3-4.7-4.7-5.8-10-5.8-14.2-15.5-14-25.7C11.9,61.8,25,48.3,41.4,48.3S70.8,60.8,71.3,78c.2,7.8-1.8,13.2-6.5,19.5L36.7,136c-.7,1-1.8,1.8-3,1s-.7-2.3.2-3.3L62,94.7c3.8-5.5,5.8-9.7,5.8-16.4C67.8,64,55.6,52,41.4,52.2A26,26,0,0,0,15.4,78c-.2,8.3,3.3,18,14.5,24.2,5.3,2.8,9.9-.3,9.7-4.5s-2-4.8-3.7-5.8c-9.2-4.8-8.9-11-8.9-13.5A14.7,14.7,0,0,1,41.2,63.7,14.8,14.8,0,0,1,56.1,78a14.3,14.3,0,0,1-2.5,8.7L12.5,143.5a3.4,3.4,0,0,0-1,2.5c.2,2,2.7,2.7,4.7,2.7H78.5c1.2,0,2.2.3,2.2,1.7a2.1,2.1,0,0,1-2.2,2H6.8a6,6,0,0,0-6.2,5.8A6.1,6.1,0,0,0,6.8,164H78.5c1.2,0,2.2.3,2.2,1.7h0V196h4V165.7c0-4.3-2.5-5.7-7.2-5.7H6.8a2.2,2.2,0,0,1-2.2-2c0-1,1.2-1.7,2.2-1.7H78.5c3.2,0,6.3-2.5,6.2-6s-3.7-5.7-7.2-5.7H19a1.3,1.3,0,0,1-1.2-.5c-.3-.5,0-1.2.3-1.7L56.8,89.1a17.2,17.2,0,0,0,3.3-11A18.8,18.8,0,0,0,41.4,59.7,18.9,18.9,0,0,0,23,78.4c-.2,13.2,10.4,17,10.9,17.4,2.3,1,1.3,2.3.8,2.8s-3.5,0-5.3-1.3-9.9-5-10-19c-.2-12.2,10-21.9,22-21.9A22,22,0,0,1,63.6,78.2c0,5.3-1,9-4.3,13.5L30.6,131.3c-1.2,1.5-1.8,2.5-1.8,4.2a6,6,0,0,0,5.7,6.2,8.2,8.2,0,0,0,5.7-3.2L67.8,99.8c5-7.2,7.5-12.7,7.5-21.4,0-18.5-15.4-34.2-33.9-34.1S8,59.7,7.7,78c-.2,9,4.2,23.4,17.4,30.4,2.2.8,1.7,2.5.8,3.3s-2.3,0-4.5-1.5C11.7,103.8,4,94.1,4,78.4,4,57.5,20.9,40.5,41.4,40.5S78.8,57.3,79.2,78c.2,9-2.7,16.4-8.4,24.5L46.9,135.2a4.4,4.4,0,0,0-1.2,2.8c0,2,2.5,2.8,4.3,2.8H112V158a6,6,0,0,0,5.8,6.2,6.1,6.1,0,0,0,5.8-6.3v-17h3.7V158c0,3.3,2.3,6.3,5.7,6.2s6-2.8,6-6.3V139A2,2,0,0,0,137.1,136.8Zm-17.5,21c0,1.2-.3,2.3-1.7,2.3s-1.8-1.2-1.8-2.3v-17h3.5Zm7.8-21h-3.7v-94c0-1.2.7-2.5,1.8-2.5s1.8,1.3,1.8,2.5Zm7.7,21.4a1.9,1.9,0,0,1-1.8,2,2.1,2.1,0,0,1-1.8-2.2V140.8h3.7Z" fill="#f38b00"/>
    </g>
  </g>
</svg>
